<svg xmlns="http://www.w3.org/2000/svg" aria-hidden="true" style="position:absolute;width:0;height:0;overflow:hidden"><defs><symbol id="hexagon-color" viewBox="0 0 32 32"><path fill="#313131" d="M16.015.015c.079.039.155.083.232.126l.051.028c.101.057.201.114.3.173.093.055.187.11.282.164l.05.029.101.058.243.14.096.055.192.111.048.028.096.055.242.139.509.295.47.272.241.139.096.056 1.347.777.048.028.096.055.242.139.463.269c.128.075.257.149.387.223l.43.248.468.271.241.139.096.056 1.732.999.048.028.096.055.242.139.463.269c.128.075.257.149.387.223l.43.248.468.271.241.139.096.056 1.347.777.048.028.096.055.242.139.477.276.042.024.078.047c.045.027.045.027.095.047a.464.464 0 0 1 .143.097c.029.088.026.172.024.264l.001.082c.001.075 0 .151-.001.226v.246l-.001.431-.001.641-.001 1.079-.002 1.068V13.167l-.003 1.669c-.002.762-.003 1.523-.003 2.285V17.804l-.003 2.579v.234l-.002 1.539v.178l-.001.404-.001.482V23.902c-.001.071-.001.071-.034.104l-.09.044c-.102.05-.199.106-.296.164-.085.051-.171.1-.257.15a3.064 3.064 0 0 0-.05.029l-.151.087c-.188.108-.375.216-.562.326-.265.155-.531.308-.798.46-.134.077-.268.154-.402.233-.188.11-.377.219-.566.327l-.146.084-.048.028-.318.185c-.145.085-.291.169-.438.252l-.494.284-.24.139-.048.028-.242.139-.465.27c-.265.155-.531.308-.798.46-.134.077-.268.154-.402.233-.25.146-.501.29-.752.434l-.402.232-.325.188-.37.215c-.265.155-.531.308-.798.46l-.402.232c-.237.138-.474.275-.712.41a44.41 44.41 0 0 0-.294.17l-.331.192c-.241.137-.481.276-.72.415-.265.155-.531.308-.798.46l-.402.232-.386.223c-.164.094-.164.094-.324.195l-.028-.017-.038-.023-.037-.022a9.753 9.753 0 0 1-.351-.201l-.331-.191a84.422 84.422 0 0 1-.308-.177l-.194-.112-.115-.068a3.382 3.382 0 0 0-.154-.088 6.823 6.823 0 0 1-.247-.142 16.099 16.099 0 0 0-.314-.183c-.201-.114-.401-.23-.601-.348a41.347 41.347 0 0 0-.736-.426 41.041 41.041 0 0 1-.356-.203l-.049-.028c-.085-.049-.17-.099-.254-.15l-.12-.071-.04-.024a6.943 6.943 0 0 1-.364-.207 19.048 19.048 0 0 0-.342-.198 25.963 25.963 0 0 1-.362-.207l-.044-.025a8.194 8.194 0 0 1-.236-.142.81.81 0 0 0-.108-.049v-.03l-.035-.009c-.076-.029-.142-.07-.211-.112l-.088-.052a4.663 4.663 0 0 0-.435-.24v-.03l-.037-.01c-.063-.023-.114-.056-.17-.092a1.942 1.942 0 0 0-.207-.119 5.056 5.056 0 0 0-.261-.149 3.887 3.887 0 0 1-.197-.115c-.032-.02-.032-.02-.075-.033v-.03l-.035-.009c-.059-.022-.108-.052-.162-.085a2.575 2.575 0 0 0-.188-.098v-.03l-.035-.009c-.076-.029-.142-.07-.212-.112l-.088-.052-.042-.025a6.49 6.49 0 0 0-.292-.168c-.083-.045-.164-.093-.245-.141a12.352 12.352 0 0 0-.293-.17l-.029-.016-.055-.031a7.835 7.835 0 0 1-.386-.229 1.945 1.945 0 0 0-.2-.11 1.099 1.099 0 0 1-.119-.071 2.215 2.215 0 0 0-.106-.06 3.945 3.945 0 0 1-.199-.115 5.52 5.52 0 0 0-.236-.135 2.66 2.66 0 0 1-.146-.086 8.491 8.491 0 0 1-.329-.19 15.75 15.75 0 0 0-.311-.18c-.147-.082-.293-.168-.44-.252l-.094-.054-.117-.069c-.084-.05-.169-.099-.254-.147a20.973 20.973 0 0 1-.412-.238l-.143-.082a12.005 12.005 0 0 1-.246-.141l-.045-.026-.045-.026-.045-.026-.093-.055-.047-.028a2.807 2.807 0 0 0-.231-.122v-.03l-.04-.012a.742.742 0 0 1-.127-.061l-.043-.025-.044-.026-.044-.026-.117-.071-.031-.017c-.034-.034-.035-.057-.036-.104v-2.884l.001-1.068V18.826l.001-1.669v-.615l.001-1.669V12.55l.002-4.528.15-.085.043-.024.212-.121.037-.021.072-.041.178-.104c.095-.057.192-.112.288-.167l.055-.032.149-.085c.282-.161.563-.324.842-.49.096-.057.193-.112.29-.167.09-.05.178-.102.267-.154l.354-.204c.13-.073.26-.148.389-.224.227-.133.456-.265.685-.395l.298-.173c.228-.134.458-.265.688-.396.079-.045.157-.09.234-.136l.295-.172.041-.024a.743.743 0 0 0 .038-.022l.034-.02c.028-.014.028-.014.058-.014v-.03l.03-.014c.1-.049.196-.102.292-.159a27.678 27.678 0 0 1 .341-.199l.151-.087.614-.355.301-.175.237-.138c.207-.121.414-.241.623-.358.121-.068.241-.138.361-.208l.357-.206a41.006 41.006 0 0 0 .583-.337l.138-.078c.086-.049.17-.099.252-.155.035-.024.072-.044.109-.064.129-.069.255-.141.381-.215.194-.113.388-.225.583-.335.157-.088.313-.178.467-.27.086-.051.172-.101.26-.149s.173-.099.259-.149c.133-.078.267-.155.401-.231.137-.078.275-.157.412-.237l.211-.122.439-.254.043-.025c.158-.091.158-.091.312-.189z"/><path fill="#cdff55" d="M16.015 4.485c.058.019.063.041.093.093l.028.051.03.055.032.057.066.117c.047.084.096.168.144.251l.055.095.027.048.139.24.055.096 1.665 2.886.028.048.055.096.14.243.254.441c.137.239.274.478.413.716l.238.413c.068.12.137.239.207.358.105.18.209.361.312.542.02.036.041.071.063.106l.017.028.033.054c.036.06.036.06.033.101-.021.046-.051.086-.08.127l-.021.031-.048.068-.114.164-.062.088-.169.244-.349.504c-.102.147-.205.294-.306.442l-.212.305c-.046.067-.093.133-.138.201l-.023.034-.041.062a.776.776 0 0 1-.05.067h-.044l-.025-.046a20.501 20.501 0 0 0-.248-.436 56.86 56.86 0 0 1-.193-.332 155.88 155.88 0 0 1-.645-1.11c-.119-.203-.236-.407-.354-.611l-.084-.146-.028-.048-.218-.374c-.038-.066-.077-.132-.113-.198l-.019-.034-.033-.061c-.029-.056-.029-.056-.085-.082l-.007.026a2.891 2.891 0 0 1-.107.3l-.048.118-.014.034-.2.502-.268.673a.924.924 0 0 1-.019.047l-.088.219-.031.077-.014.035c-.043.089-.043.089-.033.181a1.41 1.41 0 0 1 .051.086l.03.049.03.052.048.081c.052.088.103.177.153.265.087.153.175.305.264.457.066.113.131.227.195.341.076.134.153.267.231.4l.024.041.051.086c.049.084.097.169.144.255.04.073.082.145.124.218l.043.075.128.219.066.113.032.055.045.076.026.044c.019.047.018.067.002.114-.015.028-.015.028-.035.054l-.022.03-.023.032-.049.068-.025.035-.104.149-.182.263-.315.452-.119.171-.059.085-.151.217-.26.376-.057.083-.044.064-.073.106-.023.034c-.018.026-.038.052-.057.077h-.03l-.016-.028a27.915 27.915 0 0 0-.346-.607l-.164-.283a44.653 44.653 0 0 0-.215-.37c-.119-.203-.236-.407-.354-.611l-.298-.514c-.119-.203-.236-.407-.354-.611a155.66 155.66 0 0 0-.401-.691 56.686 56.686 0 0 0-.868.058l-.425.032-.235.018-.088.007c-.293.022-.293.022-.426.018.125.231.252.461.386.687a18.97 18.97 0 0 1 .193.332l.058.101.168.291.14.243c.097.168.194.335.293.502.045.076.088.153.131.231.041.075.084.149.127.223l.029.051.218.375.272.47.139.241.056.096.028.048 1.221 2.117.055.096.14.243.139.241.052.091c.326.566.749 1.028 1.336 1.332l.032.017a3.184 3.184 0 0 0 2.366.205c.106-.034.209-.075.311-.118l.034-.014c.308-.133.592-.32.837-.548.03-.028.061-.054.092-.081.131-.115.237-.253.34-.393l.018-.025a3.206 3.206 0 0 0 .544-2.373 3.115 3.115 0 0 0-.5-1.231.436.436 0 0 1-.063-.116c-.05.017-.055.025-.084.067l-.023.034-.024.037-.052.078-.027.041-.128.184-.052.074-.027.038-.144.207-.03.043-.06.087-.119.171-.059.085-.151.217c-.086.124-.173.248-.258.373l-.205.295-.289.414-.148.213-.059.085-.385.553-.059.085-.154.221-.032.046-.06.087-.028.04-.027.038a2.031 2.031 0 0 0-.05.077l-.023.037-.02.033-.02.024h-.044l-.018-.032a69.026 69.026 0 0 0-.4-.694c-.125-.213-.248-.426-.372-.64a70.131 70.131 0 0 0-.542-.927l-.037-.064-.017-.029c-.037-.064-.037-.064-.032-.1a.356.356 0 0 1 .046-.086l.022-.033.025-.035.026-.037.084-.121.06-.086.121-.174.139-.202c.069-.101.14-.201.21-.302l.158-.228.18-.26c.144-.205.287-.41.428-.616a82.183 82.183 0 0 0 .626-.901l.191-.274.158-.228.18-.26c.144-.205.287-.41.428-.616l.205-.294.386-.554.437-.628c.055-.078.108-.156.162-.235.112-.163.112-.163.163-.226h.03l.104.179.016.027.163.284.154.266.229.396c.147.257.294.514.444.77l.238.413.232.401.217.377c.066.116.133.231.202.344.025.042.048.084.071.127.038.069.077.137.118.205a5.93 5.93 0 0 1 .728 1.864l.009.043a5.005 5.005 0 0 1 .057.343 5.36 5.36 0 0 1-.007 1.554l-.008.053c-.182 1.218-.738 2.367-1.62 3.233l-.111.112c-.079.08-.159.155-.247.225a6.151 6.151 0 0 0-.124.103c-.759.632-1.712 1.041-2.683 1.199l-.054.009a4.962 4.962 0 0 1-.17.024l-.032.004a5.128 5.128 0 0 1-.656.03h-.053a4.81 4.81 0 0 1-.768-.049l-.05-.008c-1.113-.173-2.171-.646-3.005-1.408l-.094-.083a3.58 3.58 0 0 1-.189-.18l-.032-.032a3.922 3.922 0 0 1-.196-.213l-.04-.045c-.306-.356-.543-.752-.776-1.157L12.784 22l-.298-.514-.139-.241a4.767 4.767 0 0 0-.056-.096l-.028-.048-.555-.962-.055-.096-.139-.242-.27-.465-.298-.514-.139-.241a4.767 4.767 0 0 0-.056-.096l-.028-.048-.111-.192-.055-.096-.139-.242-.27-.465-.298-.514-.139-.241a4.767 4.767 0 0 0-.056-.096l-.028-.048-.333-.577-.055-.096-.139-.242-.299-.516-.122-.211-.023-.04-.041-.074-.019-.033-.016-.029c-.017-.027-.017-.027-.061-.037-.03 0-.03 0-.062.003l-.038.003-.042.004-.044.004-.096.008-.152.012-.324.026-.373.03-.149.012a4.288 4.288 0 0 1-.481.018.857.857 0 0 1 .061-.249l.015-.039.032-.084.071-.186.039-.103c.079-.208.156-.417.234-.626l.124-.334.012-.032.268-.717.058-.154.012-.033.023-.063c.027-.071.027-.071.043-.088.028-.004.057-.006.085-.008l.057-.004.063-.005.066-.005.183-.014.197-.015.341-.026.539-.041.184-.014.047-.004.525-.04.049-.004.778-.059.798-.061.493-.037.338-.026.195-.015.178-.014.065-.005.088-.007.049-.004c.044-.009.058-.017.084-.053.018-.037.018-.037.034-.079l.019-.049.02-.054.033-.085.023-.059c.039-.102.08-.203.12-.304l.022-.055.046-.114.113-.282.059-.147.091-.227.061-.153.013-.033.183-.458c.323-.806.645-1.613.966-2.42l.076-.19.018-.046.277-.694.074-.184.024-.06.012-.029.15-.376.023-.056.055-.137.1-.251c.081-.203.162-.406.246-.608z"/></symbol><symbol id="hexagon" viewBox="0 0 32 32"><path d="M15.904.104c-.049.031-.525.308-1.058.614L12.833 1.88 9.592 3.752 3.339 7.363l-1.155.668-.004 7.966-.003 7.966.055.034 1.026.595 1.961 1.132 2.435 1.406 2.968 1.714 2.183 1.261 1.488.858 1.273.736c.327.191.45.255.466.244l1.658-.958 1.909-1.103 1.184-.684 1.391-.804c.265-.152.891-.514 1.391-.804l2.62-1.513c.953-.551 2.444-1.411 2.968-1.712.318-.184.602-.349.634-.369l.055-.036V8.024l-.188-.11c-.105-.059-.542-.312-.974-.561l-1.665-.962c-1.781-1.027-5.543-3.201-6.396-3.694l-1.051-.607-.909-.524c-.121-.071-.744-.431-1.384-.798a93.48 93.48 0 0 1-1.202-.699c-.053-.037-.064-.036-.167.031zm.358 4.754.94 1.633L18.65 9l.838 1.452c.471.814.657 1.143.657 1.156 0 .009-.369.548-.817 1.196l-.819 1.181-.058-.099-1.575-2.717c-.357-.619-.409-.703-.422-.687a9.636 9.636 0 0 0-.141.346l-.423 1.069c-.16.401-.29.737-.29.746 0 .015.223.41.903 1.59.104.179.32.555.48.836l.321.557.028.046-1.64 2.358-.03-.049c-.03-.049-.302-.518-1.437-2.482a97.417 97.417 0 0 0-.681-1.168c-.03-.043-.037-.043-.475-.009l-.385.03c-.189.013-.315.024-.385.03-.037.003-.235.018-.441.031-.296.021-.373.031-.367.046.004.01.234.41.509.89l.588 1.017.799 1.384 1.384 2.398c.369.639.709 1.22.756 1.289a3.16 3.16 0 0 0 2.137 1.337c1.107.173 2.263-.295 2.957-1.194.296-.385.491-.801.594-1.268.058-.263.073-.445.064-.761a2.831 2.831 0 0 0-.332-1.311c-.102-.204-.262-.46-.293-.469a5.74 5.74 0 0 0-.32.437c-.169.241-.795 1.144-1.393 2.004l-1.088 1.563-.426-.734c-.875-1.507-.995-1.712-1.011-1.744-.013-.027.001-.056.123-.229l.188-.269.101-.144.252-.363.724-1.043.253-.363.352-.508c.028-.038.142-.203.255-.366l.252-.363c.102-.145.539-.774.777-1.119l.303-.435c.056-.078.053-.075.355-.511.437-.629.509-.733.517-.733.004.001.312.528.682 1.172.768 1.335.833 1.448 1.295 2.247.401.696.44.767.546 1.003a6.03 6.03 0 0 1 .477 1.675c.033.243.046.941.022 1.197-.151 1.634-.913 3.056-2.179 4.066a5.851 5.851 0 0 1-3.055 1.22 5.825 5.825 0 0 1-4.026-1.153 5.878 5.878 0 0 1-1.431-1.578 628.904 628.904 0 0 1-1.218-2.102l-.629-1.088-.548-.947-.573-.992c-1.31-2.266-1.665-2.879-1.671-2.885s-.893.055-.953.065a2.311 2.311 0 0 1-.185.013 7.007 7.007 0 0 0-.207.016c-.024.003-.114.009-.2.015a4.053 4.053 0 0 0-.218.016l-.064.007.016-.041.568-1.522c.078-.212.206-.552.283-.758.077-.204.139-.379.139-.385 0-.007.188-.028.419-.046 3.635-.278 4.868-.374 4.92-.38.061-.009.061-.009.113-.13.028-.067.676-1.689 1.44-3.603.765-1.915 1.393-3.483 1.397-3.483s.108.175.232.388z"/></symbol><symbol id="logo" viewBox="0 0 32 32"><path d="m16.002.557-2.061 5.161c-1.112 2.787-2.037 5.082-2.057 5.101-.028.03-.162.045-.749.09-4.239.322-6.893.529-6.95.544-.066.013-.077.028-.132.175a502.78 502.78 0 0 0-.962 2.581l-.35.934c-.068.171-.068.196.006.196.049 0 .877-.062 1.274-.096l.299-.021c.094-.006.343-.026.555-.043.358-.028.386-.028.418.006.019.019.29.478.599 1.018l5.079 8.789.757 1.312c.623 1.084 1.261 1.85 2.108 2.53 1.218.979 2.605 1.564 4.233 1.783.373.049 1.316.07 1.696.036a8.29 8.29 0 0 0 4.309-1.651 8.157 8.157 0 0 0 2.443-2.944 8.19 8.19 0 0 0 .868-3.499c.043-1.626-.346-3.076-1.225-4.587-.243-.416-2.62-4.535-2.927-5.071-.113-.196-.211-.356-.22-.352-.015.004-.124.158-.811 1.146-.239.346-1.346 1.939-2.46 3.541l-2.586 3.721a30.19 30.19 0 0 0-.561.821c.002.032 2.061 3.554 2.08 3.554.011 0 .331-.446.71-.992s1.276-1.835 1.993-2.863c.715-1.03 1.314-1.873 1.329-1.873.047 0 .275.363.446.704.811 1.63.578 3.537-.604 4.951-.655.785-1.615 1.344-2.662 1.549-.271.053-.337.058-.817.058-.442 0-.561-.009-.768-.047a4.62 4.62 0 0 1-2.724-1.568c-.233-.277-.356-.476-.892-1.402l-.683-1.184-1.152-1.995-1.237-2.144c-.156-.271-.608-1.052-1.003-1.739-.397-.687-.811-1.404-.919-1.594a3.962 3.962 0 0 1-.201-.369c0-.011.021-.021.049-.023a52.997 52.997 0 0 1 .964-.073l.881-.064.719-.055.32-.023.032.049c.017.026.717 1.229 1.553 2.673s1.527 2.633 1.536 2.641c.009.009.171-.207.358-.48l1.161-1.668c.448-.646.821-1.184.826-1.199.006-.013-.119-.247-.277-.523l-.666-1.158c-.742-1.293-1.043-1.82-1.293-2.253l-.254-.439.425-1.065.621-1.562c.141-.352.207-.495.228-.491.026.006.459.745 2.532 4.324.213.369.397.674.407.676.017.006 1.079-1.515 2.227-3.181l.134-.198-.378-.657-.565-.979-1.163-2.016c-.538-.932-1.425-2.468-1.969-3.413l-1.408-2.443a44.137 44.137 0 0 0-.433-.745c-.011-.011-.036.021-.06.075z"/></symbol><symbol id="megusta" viewBox="0 0 32 32"><path d="M16.001 4.545c-.015.036-.659 1.647-1.43 3.58s-1.414 3.526-1.427 3.539c-.019.021-.113.031-.52.062-2.941.223-4.782.367-4.822.377-.046.009-.053.019-.092.121-.044.114-.305.814-.668 1.791l-.243.648c-.047.118-.047.136.004.136.034 0 .608-.043.884-.067l.207-.015.385-.03c.249-.019.268-.019.29.004.013.013.201.332.416.706.33.571 1.974 3.418 3.524 6.098l.525.91c.432.752.875 1.283 1.462 1.755.845.679 1.807 1.085 2.937 1.237.259.034.913.049 1.177.025a5.757 5.757 0 0 0 2.99-1.146 5.654 5.654 0 0 0 1.695-2.043c.385-.78.579-1.562.602-2.427.03-1.128-.24-2.134-.85-3.182-.169-.289-1.818-3.147-2.031-3.518a1.993 1.993 0 0 0-.152-.244c-.01.003-.086.11-.562.795l-1.707 2.457-1.794 2.581c-.215.308-.389.564-.389.57.001.022 1.43 2.466 1.443 2.466.007 0 .229-.309.493-.688l1.382-1.988c.496-.713.912-1.298.922-1.298.033 0 .191.252.309.488a3.132 3.132 0 0 1-.419 3.435 3.23 3.23 0 0 1-1.847 1.075c-.188.037-.234.04-.567.04-.306 0-.389-.006-.533-.033a3.207 3.207 0 0 1-1.89-1.088c-.161-.192-.247-.33-.619-.972l-.474-.821-.799-1.384-.858-1.488-.696-1.206-.638-1.106a2.715 2.715 0 0 1-.139-.256c0-.007.015-.015.034-.016a31.86 31.86 0 0 1 .669-.05l.611-.044.499-.038.222-.016.022.034c.012.018.497.853 1.078 1.855s1.06 1.826 1.066 1.832c.006.006.118-.144.249-.333l.805-1.157c.311-.448.57-.821.573-.832a3.225 3.225 0 0 0-.192-.363c-.11-.189-.317-.552-.462-.804l-.897-1.563-.176-.305.295-.739.431-1.083c.098-.244.144-.343.158-.34.018.004.318.517 1.757 3 .148.256.275.468.283.469.012.004.749-1.051 1.545-2.207l.093-.138-.262-.456-.392-.679-.807-1.399-1.366-2.368a983.034 983.034 0 0 0-1.277-2.212c-.007-.007-.025.015-.041.052z"/></symbol></defs></svg>
